<svg width="1188" height="1188" viewBox="0 0 1188 1188" fill="none" xmlns="http://www.w3.org/2000/svg">
<path d="M594.354 865.646L594 865.293L593.646 865.646L299.646 1159.65C281.075 1178.22 258.536 1187.5 232 1187.5C205.464 1187.5 182.925 1178.22 164.354 1159.65L28.3536 1023.65C9.78172 1005.07 0.5 982.536 0.5 956C0.5 929.464 9.78172 906.925 28.3536 888.354L322.354 594.354L322.707 594L322.354 593.646L28.3536 299.646C9.78172 281.075 0.5 258.536 0.5 232C0.5 205.464 9.78172 182.925 28.3536 164.354L164.354 28.3536C182.925 9.78172 205.464 0.5 232 0.5C258.536 0.5 281.075 9.78172 299.646 28.3536L593.646 322.354L594 322.707L594.354 322.354L888.354 28.3536C906.925 9.78172 929.464 0.5 956 0.5C982.536 0.5 1005.07 9.78172 1023.65 28.3536L1159.65 164.354C1178.22 182.925 1187.5 205.464 1187.5 232C1187.5 258.536 1178.22 281.075 1159.65 299.646L865.646 593.646L865.293 594L865.646 594.354L1159.65 888.354C1178.22 906.925 1187.5 929.464 1187.5 956C1187.5 982.536 1178.22 1005.07 1159.65 1023.65L1023.65 1159.65C1005.07 1178.22 982.536 1187.5 956 1187.5C929.464 1187.5 906.925 1178.22 888.354 1159.65L594.354 865.646Z" fill="black" stroke="black"/>
</svg>
